HIERARCHY
ROOT Pelvis
{
	OFFSET 0.000000 0.941512 0.000000
	CHANNELS 6 Xposition Yposition Zposition Zrotation Yrotation Xrotation 
	JOINT Pelvis_L_Hip
	{
		OFFSET 0.000000 0.000000 0.000000
		CHANNELS 3 Zrotation Yrotation Xrotation
		JOINT L_Hip
		{
			OFFSET 0.062321 -0.080322 -0.016990
			CHANNELS 3 Zrotation Yrotation Xrotation
			JOINT L_Knee
			{
				OFFSET 0.093051 -0.381305 -0.029784
				CHANNELS 3 Zrotation Yrotation Xrotation
				JOINT L_Ankle
				{
					OFFSET -0.010371 -0.431000 -0.033614
					CHANNELS 3 Zrotation Yrotation Xrotation
					End Site #name: L_Foot
					{
						OFFSET 0.069299 -0.038670 0.119418
					}
				}
			}
		}
	}
	JOINT Pelvis_R_Hip
	{
		OFFSET 0.000000 0.000000 0.000000
		CHANNELS 3 Zrotation Yrotation Xrotation
		JOINT R_Hip
		{
			OFFSET -0.055334 -0.094904 -0.002373
			CHANNELS 3 Zrotation Yrotation Xrotation
			JOINT R_Knee
			{
				OFFSET -0.064207 -0.384370 -0.019592
				CHANNELS 3 Zrotation Yrotation Xrotation
				JOINT R_Ankle
				{
					OFFSET 0.025418 -0.419734 -0.065953
					CHANNELS 3 Zrotation Yrotation Xrotation
					End Site #name: R_Foot
					{
						OFFSET -0.057233 -0.039888 0.132134
					}
				}
			}
		}
	}
	JOINT Pelvis_Spine1
	{
		OFFSET 0.000000 0.000000 0.000000
		CHANNELS 3 Zrotation Yrotation Xrotation
		JOINT Spine1
		{
			OFFSET -0.005562 0.124093 -0.043360
			CHANNELS 3 Zrotation Yrotation Xrotation
			JOINT Spine2
			{
				OFFSET 0.012244 0.139499 0.029894
				CHANNELS 3 Zrotation Yrotation Xrotation
				JOINT Spine3
				{
					OFFSET -0.002556 0.056561 0.009225
					CHANNELS 3 Zrotation Yrotation Xrotation
					JOINT Spine3_Neck
					{
						OFFSET 0.000000 0.000000 0.000000
						CHANNELS 3 Zrotation Yrotation Xrotation
						JOINT Neck
						{
							OFFSET -0.005205 0.217920 -0.024551
							CHANNELS 3 Zrotation Yrotation Xrotation
							End Site #name: Head
							{
								OFFSET 0.002365 0.091850 0.046637
							}
						}
					}
					JOINT Spine3_L_Collar
					{
						OFFSET 0.000000 0.000000 0.000000
						CHANNELS 3 Zrotation Yrotation Xrotation
						JOINT L_Collar
						{
							OFFSET 0.072225 0.116603 -0.009480
							CHANNELS 3 Zrotation Yrotation Xrotation
							JOINT L_Shoulder
							{
								OFFSET 0.115937 -0.058643 -0.021018
								CHANNELS 3 Zrotation Yrotation Xrotation
								JOINT L_Elbow
								{
									OFFSET 0.021994 -0.254722 -0.024492
									CHANNELS 3 Zrotation Yrotation Xrotation
									End Site #name: L_Wrist
									{
										OFFSET 0.048810 -0.240214 0.103329
									}
								}
							}
						}
					}
					JOINT Spine3_R_Collar
					{
						OFFSET 0.000000 0.000000 0.000000
						CHANNELS 3 Zrotation Yrotation Xrotation
						JOINT R_Collar
						{
							OFFSET -0.073372 0.120704 -0.024611
							CHANNELS 3 Zrotation Yrotation Xrotation
							JOINT R_Shoulder
							{
								OFFSET -0.108089 -0.054969 -0.020504
								CHANNELS 3 Zrotation Yrotation Xrotation
								JOINT R_Elbow
								{
									OFFSET -0.033684 -0.260739 0.009889
									CHANNELS 3 Zrotation Yrotation Xrotation
									End Site #name: R_Wrist
									{
										OFFSET -0.067980 -0.232763 0.118463
									}
								}
							}
						}
					}
				}
			}
		}
	}
}
MOTION
Frames: 5
Frame Time: 0.041667
-0.032699 0.489486 0.434724 -1.316787 4.291044 0.294042 0.000000 0.000000 0.000000 8.021693 -4.092128 -19.704518 -0.386083 -10.103491 128.221484 8.738146 -38.661386 -25.856324 0.000000 0.000000 0.000000 -14.163674 2.764584 -85.036364 26.734334 -38.792253 107.115723 -14.161138 -33.501497 -19.696602 0.000000 0.000000 0.000000 4.750460 -15.006415 68.332312 0.928483 -0.126119 0.688413 5.950456 9.533661 1.438907 0.000000 0.000000 0.000000 -0.835729 0.976919 -20.791151 0.000000 0.000000 0.000000 0.876677 -4.459216 -2.162851 5.038164 0.254079 15.801284 -0.017881 -11.888335 -43.527314 0.000000 0.000000 0.000000 -24.276822 38.499221 -30.063564 -30.630306 -3.062194 -14.237556 -3.611670 -6.506433 20.255650 
-0.014940 0.489757 0.430719 -2.009030 3.956994 0.380533 0.000000 0.000000 0.000000 6.907507 -4.295562 -20.298476 -1.206706 -7.917346 129.423257 8.693948 -36.438731 -25.416543 0.000000 0.000000 0.000000 -15.006152 2.202659 -85.087365 25.617246 -37.288191 107.759888 -13.767342 -31.631359 -19.697817 0.000000 0.000000 0.000000 5.137387 -15.399334 68.683448 0.983680 -0.146205 0.389389 5.976446 9.672565 1.536658 0.000000 0.000000 0.000000 -0.980589 1.023910 -21.314506 0.000000 0.000000 0.000000 1.051498 -4.838575 -2.333772 5.818735 0.031815 14.369345 0.177683 -11.967820 -44.268020 0.000000 0.000000 0.000000 -24.667198 38.562837 -30.293339 -31.945900 -3.183987 -13.625189 -4.084994 -6.597278 20.046990 
0.003349 0.489171 0.425246 -2.812775 3.601663 0.323311 0.000000 0.000000 0.000000 5.797322 -4.546226 -21.070417 -1.894487 -5.959434 130.624873 8.390505 -34.601704 -24.665103 0.000000 0.000000 0.000000 -15.809196 1.678301 -85.039625 24.746290 -35.893421 107.988098 -13.438952 -30.052125 -19.670105 0.000000 0.000000 0.000000 5.201674 -15.546488 69.369461 0.961537 -0.157364 -0.017470 6.017020 9.830377 1.813717 0.000000 0.000000 0.000000 -1.031896 1.044091 -21.989835 0.000000 0.000000 0.000000 0.904002 -5.734166 -2.839843 7.019292 -0.285560 11.494152 0.805281 -11.164312 -43.761047 0.000000 0.000000 0.000000 -25.169194 38.699756 -30.656915 -33.463733 -3.306931 -12.919989 -4.246500 -6.527054 19.500219 
0.020913 0.488516 0.417900 -3.840643 3.274832 0.246518 0.000000 0.000000 0.000000 4.938899 -4.822064 -22.024198 -2.111391 -5.213003 131.468055 7.881881 -34.650893 -23.952157 0.000000 0.000000 0.000000 -16.352463 1.349977 -85.000599 24.322469 -34.816307 107.489422 -13.268000 -29.332767 -19.494052 0.000000 0.000000 0.000000 4.877045 -15.445312 70.551084 0.885929 -0.166079 -0.583975 6.015502 9.957946 2.289495 0.000000 0.000000 0.000000 -0.987312 1.037724 -23.391938 0.000000 0.000000 0.000000 0.716196 -7.702687 -3.926047 8.531300 -0.616285 6.489605 2.584962 -8.489327 -40.957262 0.000000 0.000000 0.000000 -26.279829 39.040164 -31.492385 -34.689287 -3.383302 -12.289637 -4.471941 -6.436263 18.760426 
0.036568 0.488203 0.408668 -5.282320 3.053156 0.208392 0.000000 0.000000 0.000000 4.673761 -5.087609 -23.208574 -1.864396 -5.888922 132.297473 7.313665 -36.780410 -23.551435 0.000000 0.000000 0.000000 -16.474771 1.307531 -85.012546 24.543177 -34.282815 105.971116 -13.316140 -29.881774 -19.012644 0.000000 0.000000 0.000000 4.183461 -15.162461 72.311858 0.659317 -0.139835 -0.829765 6.033580 10.016713 2.241571 0.000000 0.000000 0.000000 -1.278199 1.109495 -25.051556 0.000000 0.000000 0.000000 0.525655 -10.997020 -5.724768 11.056407 -0.904244 0.196999 7.208877 -3.147832 -36.679943 0.000000 0.000000 0.000000 -27.752900 39.967959 -33.073477 -36.166209 -3.449915 -11.453611 -4.259424 -6.242024 18.152812 
